<svg width="14" height="14" class="lg:w-[24px] lg:h-[24px]" viewBox="0 0 15 14" fill="none" xmlns="http://www.w3.org/2000/svg"><path d="M3.56726 0.326172C4.27054 0.326172 4.94502 0.60555 5.44232 1.10285C5.93962 1.60014 6.21899 2.27462 6.21899 2.97791V4.30377H8.87073V2.97791C8.87073 2.27462 9.15011 1.60014 9.6474 1.10285C10.1447 0.60555 10.8192 0.326172 11.5225 0.326172C12.2257 0.326172 12.9002 0.60555 13.3975 1.10285C13.8948 1.60014 14.1742 2.27462 14.1742 2.97791C14.1742 3.68119 13.8948 4.35567 13.3975 4.85296C12.9002 5.35026 12.2257 5.62964 11.5225 5.62964H10.1966V8.28137H11.5225C12.2257 8.28137 12.9002 8.56075 13.3975 9.05805C13.8948 9.55534 14.1742 10.2298 14.1742 10.9331C14.1742 11.6364 13.8948 12.3109 13.3975 12.8082C12.9002 13.3055 12.2257 13.5848 11.5225 13.5848C10.8192 13.5848 10.1447 13.3055 9.6474 12.8082C9.15011 12.3109 8.87073 11.6364 8.87073 10.9331V9.60724H6.21899V10.9331C6.21899 11.6364 5.93962 12.3109 5.44232 12.8082C4.94502 13.3055 4.27054 13.5848 3.56726 13.5848C2.86398 13.5848 2.1895 13.3055 1.6922 12.8082C1.19491 12.3109 0.915527 11.6364 0.915527 10.9331C0.915527 10.2298 1.19491 9.55534 1.6922 9.05805C2.1895 8.56075 2.86398 8.28137 3.56726 8.28137H4.89313V5.62964H3.56726C2.86398 5.62964 2.1895 5.35026 1.6922 4.85296C1.19491 4.35567 0.915527 3.68119 0.915527 2.97791C0.915527 2.27462 1.19491 1.60014 1.6922 1.10285C2.1895 0.60555 2.86398 0.326172 3.56726 0.326172ZM10.1966 10.9331C10.1966 11.2847 10.3363 11.622 10.5849 11.8706C10.8336 12.1193 11.1708 12.259 11.5225 12.259C11.8741 12.259 12.2113 12.1193 12.46 11.8706C12.7086 11.622 12.8483 11.2847 12.8483 10.9331C12.8483 10.5815 12.7086 10.2442 12.46 9.99558C12.2113 9.74693 11.8741 9.60724 11.5225 9.60724H10.1966V10.9331ZM8.87073 5.62964H6.21899V8.28137H8.87073V5.62964ZM3.56726 9.60724C3.21562 9.60724 2.87838 9.74693 2.62973 9.99558C2.38108 10.2442 2.24139 10.5815 2.24139 10.9331C2.24139 11.2847 2.38108 11.622 2.62973 11.8706C2.87838 12.1193 3.21562 12.259 3.56726 12.259C3.9189 12.259 4.25614 12.1193 4.50479 11.8706C4.75344 11.622 4.89313 11.2847 4.89313 10.9331V9.60724H3.56726ZM4.89313 2.97791C4.89313 2.62626 4.75344 2.28902 4.50479 2.04038C4.25614 1.79173 3.9189 1.65204 3.56726 1.65204C3.21562 1.65204 2.87838 1.79173 2.62973 2.04038C2.38108 2.28902 2.24139 2.62626 2.24139 2.97791C2.24139 3.32955 2.38108 3.66679 2.62973 3.91543C2.87838 4.16408 3.21562 4.30377 3.56726 4.30377H4.89313V2.97791ZM11.5225 4.30377C11.8741 4.30377 12.2113 4.16408 12.46 3.91543C12.7086 3.66679 12.8483 3.32955 12.8483 2.97791C12.8483 2.62626 12.7086 2.28902 12.46 2.04038C12.2113 1.79173 11.8741 1.65204 11.5225 1.65204C11.1708 1.65204 10.8336 1.79173 10.5849 2.04038C10.3363 2.28902 10.1966 2.62626 10.1966 2.97791V4.30377H11.5225Z" fill="#FF703B"></path></svg>